HIERARCHY
ROOT hip
{
  OFFSET 0 0 0
  CHANNELS 6 Xposition Yposition Zposition Zrotation Yrotation Xrotation
  JOINT abdomen
  {
    OFFSET 0 20.6881 -0.73152
    CHANNELS 3 Zrotation Xrotation Yrotation
    JOINT chest
    {
      OFFSET 0 11.7043 -0.48768
      CHANNELS 3 Zrotation Xrotation Yrotation
      JOINT neck
      {
        OFFSET 0 22.1894 -2.19456
        CHANNELS 3 Zrotation Xrotation Yrotation
        JOINT head
        {
          OFFSET -0.24384 7.07133 1.2192
          CHANNELS 3 Zrotation Xrotation Yrotation
          JOINT leftEye
          {
            OFFSET 4.14528 8.04674 8.04672
            CHANNELS 3 Zrotation Xrotation Yrotation
            End Site
            {
              OFFSET 1 0 0
            }
          }
          JOINT rightEye
          {
            OFFSET -3.6576 8.04674 8.04672
            CHANNELS 3 Zrotation Xrotation Yrotation
            End Site
            {
              OFFSET 1 0 0
            }
          }
        }
      }
      JOINT rCollar
      {
        OFFSET -2.68224 19.2634 -4.8768
        CHANNELS 3 Zrotation Xrotation Yrotation
        JOINT rShldr
        {
          OFFSET -8.77824 -1.95073 1.46304
          CHANNELS 3 Zrotation Xrotation Yrotation
          JOINT rForeArm
          {
            OFFSET -28.1742 -1.7115 0.48768
            CHANNELS 3 Zrotation Xrotation Yrotation
            JOINT rHand
            {
              OFFSET -22.5879 0.773209 7.07136
              CHANNELS 3 Zrotation Xrotation Yrotation
              JOINT rThumb1
              {
                OFFSET -1.2192 -0.487915 3.41376
                CHANNELS 3 Zrotation Xrotation Yrotation
                JOINT rThumb2
                {
                  OFFSET -3.37035 -0.52449 3.41376
                  CHANNELS 3 Zrotation Xrotation Yrotation
                  End Site
                  {
                    OFFSET -1.78271 -1.18214 1.43049
                  }
                }
              }
              JOINT rIndex1
              {
                OFFSET -7.75947 0.938293 5.60832
                CHANNELS 3 Zrotation Xrotation Yrotation
                JOINT rIndex2
                {
                  OFFSET -2.54057 -0.884171 1.56538
                  CHANNELS 3 Zrotation Xrotation Yrotation
                  End Site
                  {
                    OFFSET -1.62519 -0.234802 1.16502
                  }
                }
              }
              JOINT rMid1
              {
                OFFSET -8.24714 1.18213 3.41376
                CHANNELS 3 Zrotation Xrotation Yrotation
                JOINT rMid2
                {
                  OFFSET -3.10165 -0.590103 1.0647
                  CHANNELS 3 Zrotation Xrotation Yrotation
                  End Site
                  {
                    OFFSET -2.48547 -0.328903 0.83742
                  }
                }
              }
              JOINT rRing1
              {
                OFFSET -8.82822 0.546677 1.51678
                CHANNELS 3 Zrotation Xrotation Yrotation
                JOINT rRing2
                {
                  OFFSET -2.60934 -0.819778 -0.0198488
                  CHANNELS 3 Zrotation Xrotation Yrotation
                  End Site
                  {
                    OFFSET -2.33842 -0.294052 0.168128
                  }
                }
              }
              JOINT rPinky1
              {
                OFFSET -8.27202 -0.0477905 -0.4584
                CHANNELS 3 Zrotation Xrotation Yrotation
                JOINT rPinky2
                {
                  OFFSET -1.82734 -0.647385 -0.700984
                  CHANNELS 3 Zrotation Xrotation Yrotation
                  End Site
                  {
                    OFFSET -1.69225 -0.51767 -0.607171
                  }
                }
              }
            }
          }
        }
      }
      JOINT lCollar
      {
        OFFSET 2.68224 19.2634 -4.8768
        CHANNELS 3 Zrotation Xrotation Yrotation
        JOINT lShldr
        {
          OFFSET 8.77824 -1.95073 1.46304
          CHANNELS 3 Zrotation Xrotation Yrotation
          JOINT lForeArm
          {
            OFFSET 28.1742 -1.7115 0.48768
            CHANNELS 3 Zrotation Xrotation Yrotation
            JOINT lHand
            {
              OFFSET 22.5879 0.773209 7.07136
              CHANNELS 3 Zrotation Xrotation Yrotation
              JOINT lThumb1
              {
                OFFSET 1.2192 -0.487915 3.41376
                CHANNELS 3 Zrotation Xrotation Yrotation
                JOINT lThumb2
                {
                  OFFSET 3.37035 -0.52449 3.41376
                  CHANNELS 3 Zrotation Xrotation Yrotation
                  End Site
                  {
                    OFFSET 1.78271 -1.18214 1.43049
                  }
                }
              }
              JOINT lIndex1
              {
                OFFSET 7.75947 0.938293 5.60832
                CHANNELS 3 Zrotation Xrotation Yrotation
                JOINT lIndex2
                {
                  OFFSET 2.54057 -0.884171 1.56538
                  CHANNELS 3 Zrotation Xrotation Yrotation
                  End Site
                  {
                    OFFSET 1.62519 -0.234802 1.16502
                  }
                }
              }
              JOINT lMid1
              {
                OFFSET 8.24714 1.18213 3.41376
                CHANNELS 3 Zrotation Xrotation Yrotation
                JOINT lMid2
                {
                  OFFSET 3.10165 -0.590103 1.0647
                  CHANNELS 3 Zrotation Xrotation Yrotation
                  End Site
                  {
                    OFFSET 2.48547 -0.328903 0.83742
                  }
                }
              }
              JOINT lRing1
              {
                OFFSET 8.82822 0.546677 1.51678
                CHANNELS 3 Zrotation Xrotation Yrotation
                JOINT lRing2
                {
                  OFFSET 2.60934 -0.819778 -0.0198488
                  CHANNELS 3 Zrotation Xrotation Yrotation
                  End Site
                  {
                    OFFSET 2.33842 -0.294052 0.168128
                  }
                }
              }
              JOINT lPinky1
              {
                OFFSET 8.27202 -0.0477905 -0.4584
                CHANNELS 3 Zrotation Xrotation Yrotation
                JOINT lPinky2
                {
                  OFFSET 1.82734 -0.647385 -0.700984
                  CHANNELS 3 Zrotation Xrotation Yrotation
                  End Site
                  {
                    OFFSET 1.69225 -0.51767 -0.607171
                  }
                }
              }
            }
          }
        }
      }
    }
  }
  JOINT rButtock
  {
    OFFSET -8.77824 4.35084 1.2192
    CHANNELS 3 Zrotation Xrotation Yrotation
    JOINT rThigh
    {
      OFFSET 0 -1.70687 -2.19456
      CHANNELS 3 Zrotation Xrotation Yrotation
      JOINT rShin
      {
        OFFSET 0 -36.8199 0.73152
        CHANNELS 3 Zrotation Xrotation Yrotation
        JOINT rFoot
        {
          OFFSET 0.73152 -45.1104 -5.12064
          CHANNELS 3 Zrotation Xrotation Yrotation
          End Site
          {
            OFFSET -1.1221 -3.69964 12.103
          }
        }
      }
    }
  }
  JOINT lButtock
  {
    OFFSET 8.77824 4.35084 1.2192
    CHANNELS 3 Zrotation Xrotation Yrotation
    JOINT lThigh
    {
      OFFSET 0 -1.70687 -2.19456
      CHANNELS 3 Zrotation Xrotation Yrotation
      JOINT lShin
      {
        OFFSET 0 -36.8199 0.73152
        CHANNELS 3 Zrotation Xrotation Yrotation
        JOINT lFoot
        {
          OFFSET -0.73152 -45.1104 -5.12064
          CHANNELS 3 Zrotation Xrotation Yrotation
          End Site
          {
            OFFSET 1.1221 -3.69964 12.103
          }
        }
      }
    }
  }
}
MOTION
Frames:	5
Frame Time:	0.00833333
-74.6688 85.1237 23.1023 0.0 0.0 0.0 0.435969 -0.0238513 0.01282 0.121274 -0.0396248 0.0210491 9.62047e-15 -1.59028e-15 -3.10601e-17 2.89014e-14 3.18055e-15 -1.13369e-16 -0.0 0.0 0.0 -0.0 0.0 0.0 4.81886e-15 -8.67742e-17 1.49089e-16 1.03803e-13 -2.0686e-15 7.95139e-16 1.73251e-12 -5.9695e-13 -2.22639e-14 1.99737e-11 1.38901e-13 -4.77083e-14 4.70843e-11 -9.96258e-13 -1.43125e-13 8.13005e-11 -1.72068e-12 -2.61601e-13 4.70897e-11 -9.95514e-13 -1.52667e-13 7.73091 5.47488 0.417314 4.70848e-11 -9.95514e-13 -1.46306e-13 2.90554 0.965183 0.102902 4.70924e-11 -9.95812e-13 -1.48691e-13 10.2786 0.731801 0.0259123 4.70804e-11 -9.94719e-13 -1.46306e-13 2.22167 -0.733487 -0.20892 4.82251e-15 -8.658e-17 -1.49089e-16 9.86144e-14 -2.37299e-15 -5.96354e-16 1.75631e-12 4.46073e-13 -3.81667e-14 1.99565e-11 -9.0857e-13 -2.54444e-14 4.71019e-11 -1.0011e-12 -1.55847e-13 8.13459e-11 -1.73658e-12 -2.53649e-13 4.70977e-11 -9.98694e-13 -1.39944e-13 -7.73091 5.47488 -0.417314 4.71009e-11 -1.00098e-12 -1.49486e-13 -2.90554 0.965183 -0.102902 4.70938e-11 -1.00068e-12 -1.4551e-13 -10.2786 0.731801 -0.0259123 4.7104e-11 -9.99887e-13 -1.49486e-13 -2.22167 -0.733487 0.20892 -2.03217e-16 0.0 -3.88251e-19 0.652012 -4.71109 -0.0694781 -0.000844243 2.99807 0.00381743 -0.326407 1.72325 0.0697913 2.03217e-16 0.0 3.88251e-19 0.0331717 -2.68026 0.0231594 0.00579475 -0.67975 0.0505401 0.296126 3.3702 -0.096675
-73.974 83.9021 5.29987 -177.17 -3.3358 -170.564 2.29083 -1.50711 1.7095 -0.0892501 -4.1102 0.309278 0.487784 -0.772385 0.459392 -1.99998 4.82252 0.00638896 -0.0 0.0 0.0 -0.0 0.0 0.0 4.80395e-15 2.7844e-14 -7.98749e-15 18.9355 14.3668 -2.85754 -4.92914 -2.40166 7.5149 -1.72873e-05 0.000737309 0.000103532 -2.5903e-10 2.46793e-10 -7.81293e-11 -4.48675e-10 4.26656e-10 -1.34735e-10 -2.59028e-10 2.46797e-10 -7.81427e-11 7.73091 5.47488 0.417314 -2.59031e-10 2.46795e-10 -7.81307e-11 2.90554 0.965183 0.102902 -2.59023e-10 2.46797e-10 -7.81337e-11 10.2786 0.731801 0.0259123 -2.59036e-10 2.46799e-10 -7.81306e-11 2.22167 -0.733487 -0.20892 4.78737e-15 2.78388e-14 -8.28684e-15 -20.7386 8.82362 4.09136 5.69445 -2.96915 -8.44099 -0.000296657 0.405835 -0.0570325 -9.63996e-11 -1.43388e-10 -6.6927e-11 -1.66612e-10 -2.48065e-10 -1.15591e-10 -9.64031e-11 -1.43385e-10 -6.691e-11 -7.73091 5.47488 -0.417314 -9.63998e-11 -1.43387e-10 -6.69213e-11 -2.90554 0.965183 -0.102902 -9.64062e-11 -1.43388e-10 -6.69187e-11 -10.2786 0.731801 -0.0259123 -9.63961e-11 -1.43387e-10 -6.69239e-11 -2.22167 -0.733487 0.20892 -2.03217e-16 0.0 -3.88251e-19 5.45625 -5.10528 9.7297 -0.0539388 3.73329 -0.381634 -0.65672 -10.936 -10.1773 2.03217e-16 0.0 3.88251e-19 -1.60669 -1.9049 -9.52463 0.00882081 -1.37706 0.0924764 0.286012 -6.02744 2.64803
-74.013 83.8896 5.46873 -177.222 -3.4262 -170.52 4.35483 -3.07835 3.504 -0.269793 -8.41315 0.617138 1.01989 -1.58621 0.946213 -4.12747 9.91553 0.0159234 -0.0 0.0 0.0 -0.0 0.0 0.0 6.2389e-15 5.74163e-14 -1.8633e-14 40.7201 29.4294 -6.54949 -9.45861 -4.80086 15.4975 -4.72211e-05 0.0121494 0.00170725 -6.16014e-10 5.33943e-10 -1.64351e-10 -1.06668e-09 9.23035e-10 -2.83372e-10 -6.16013e-10 5.3395e-10 -1.64368e-10 7.73091 5.47488 0.417314 -6.16015e-10 5.33947e-10 -1.6435e-10 2.90554 0.965183 0.102902 -6.16007e-10 5.33951e-10 -1.64354e-10 10.2786 0.731801 0.0259123 -6.16021e-10 5.33955e-10 -1.6435e-10 2.22167 -0.733487 -0.20892 6.20114e-15 5.74052e-14 -1.89342e-14 -44.0983 18.0054 8.75501 10.7879 -5.90551 -17.4574 0.000286805 0.819076 -0.115116 -2.5121e-10 -3.04601e-10 -1.4951e-10 -4.34104e-10 -5.26965e-10 -2.58276e-10 -2.51212e-10 -3.04598e-10 -1.49492e-10 -7.73091 5.47488 -0.417314 -2.51209e-10 -3.046e-10 -1.49505e-10 -2.90554 0.965183 -0.102902 -2.51215e-10 -3.04601e-10 -1.49504e-10 -10.2786 0.731801 -0.0259123 -2.51205e-10 -3.046e-10 -1.49511e-10 -2.22167 -0.733487 0.20892 -2.03217e-16 0.0 -3.88251e-19 10.6746 -5.33135 20.0954 -0.0994502 4.51382 -0.790997 -6.1822 -22.9855 -22.512 2.03217e-16 0.0 3.88251e-19 -3.06947 -1.07147 -19.6021 0.0132399 -2.11184 0.136902 1.28255 -15.8868 5.73294
-74.0134 83.8898 5.56946 -177.24 -3.5034 -170.483 6.26438 -4.45788 5.11661 -0.384962 -12.25 0.903932 1.50053 -2.31656 1.37918 -6.00326 14.4676 0.0197245 -0.0 0.0 0.0 -0.0 0.0 0.0 4.77411e-15 8.37054e-14 -2.42607e-14 62.3887 42.5912 -11.3139 -12.9408 -6.71029 22.6888 -5.18699e-05 0.00221193 0.000310595 -8.7126e-10 7.42372e-10 -2.34102e-10 -1.50862e-09 1.28341e-09 -4.03681e-10 -8.71262e-10 7.42381e-10 -2.34123e-10 7.73091 5.47488 0.417314 -8.71262e-10 7.42376e-10 -2.34099e-10 2.90554 0.965183 0.102902 -8.71254e-10 7.42383e-10 -2.34104e-10 10.2786 0.731801 0.0259123 -8.7127e-10 7.42387e-10 -2.34099e-10 2.22167 -0.733487 -0.20892 4.7171e-15 8.36895e-14 -2.45623e-14 -66.3197 25.9005 13.5072 14.5318 -8.13568 -25.5642 0.00153431 1.2175 -0.171132 -3.83402e-10 -4.28163e-10 -2.00469e-10 -6.62529e-10 -7.40723e-10 -3.46266e-10 -3.83404e-10 -4.28158e-10 -2.0045e-10 -7.73091 5.47488 -0.417314 -3.83401e-10 -4.2816e-10 -2.00465e-10 -2.90554 0.965183 -0.102902 -3.83406e-10 -4.28161e-10 -2.00465e-10 -10.2786 0.731801 -0.0259123 -3.83396e-10 -4.2816e-10 -2.00473e-10 -2.22167 -0.733487 0.20892 -2.03217e-16 0.0 -3.88251e-19 15.4242 -5.33579 29.3502 -0.130335 5.20292 -1.15486 -16.018 -31.1832 -35.9026 2.03217e-16 0.0 3.88251e-19 -4.13339 -0.381042 -28.6049 0.0179389 -2.77168 0.176483 3.17142 -24.578 8.90573
-73.9132 83.9046 5.61745 -177.194 -3.5485 -170.501 7.60003 -5.37316 6.26112 -0.424735 -14.923 1.12111 1.82636 -2.83879 1.67656 -7.24518 17.6671 0.00813162 -0.0 0.0 0.0 -0.0 0.0 0.0 -3.94006e-15 1.01787e-13 -1.7344e-14 79.5631 51.4592 -16.3169 -15.0856 -7.86463 27.765 -4.5783e-06 -0.0610995 -0.00858698 -8.72165e-10 7.53995e-10 -2.62676e-10 -1.51042e-09 1.30378e-09 -4.53171e-10 -8.72169e-10 7.54006e-10 -2.62698e-10 7.73091 5.47488 0.417314 -8.72168e-10 7.54e-10 -2.62672e-10 2.90554 0.965183 0.102902 -8.7216e-10 7.54008e-10 -2.62677e-10 10.2786 0.731801 0.0259123 -8.72176e-10 7.54012e-10 -2.62672e-10 2.22167 -0.733487 -0.20892 -4.01149e-15 1.01768e-13 -1.76421e-14 -82.6666 31.1247 17.2989 16.6985 -9.35277 -31.1616 0.00305836 1.57888 -0.221954 -4.59053e-10 -4.57593e-10 -1.72367e-10 -7.93287e-10 -7.91624e-10 -2.97516e-10 -4.59054e-10 -4.57588e-10 -1.72348e-10 -7.73091 5.47488 -0.417314 -4.59051e-10 -4.57589e-10 -1.72364e-10 -2.90554 0.965183 -0.102902 -4.59055e-10 -4.57591e-10 -1.72365e-10 -10.2786 0.731801 -0.0259123 -4.59045e-10 -4.5759e-10 -1.72373e-10 -2.22167 -0.733487 0.20892 -2.03217e-16 0.0 -3.88251e-19 18.7807 -5.2148 35.8175 -0.146068 5.66416 -1.40309 -25.4849 -34.7283 -46.5692 2.03217e-16 0.0 3.88251e-19 -4.73127 0.0347406 -34.926 0.0211836 -3.24418 0.203841 5.19414 -30.5821 11.5467
